# xmcd
#
# Track frame offsets:
#	150
#	15694
#	29476
#	46999
#	69500
#	85547
#	100956
#	119410
#	140380
#	164746
#	182363
#	196257
#
# Disc length: 2833 seconds
#
# Revision: 1
# Processed by: cddbd v1.5.2PL0 Copyright (c) Steve Scherf et al.
# Submitted via: audiograbber 1.83.01
#
DISCID=9c0b0f0c
DTITLE=Dwight Yoakam - Live At The Roxy
DYEAR=1986
DGENRE=Country
TTITLE0=Can't You Hear Me Calling
TTITLE1=Honky Tonk Man
TTITLE2=Guitars, Cadillacs
TTITLE3=Rocky Road Blues
TTITLE4=Heartaches By The Number
TTITLE5=I'll Be Gone
TTITLE6=It Won't Hurt
TTITLE7=My Bucket's Got A Hole In It
TTITLE8=South Of Cincinnati
TTITLE9=Mystery Train
TTITLE10=Ring Of Fire
TTITLE11=Since I Started Drinking Again
EXTD=
EXTT0=
EXTT1=
EXTT2=
EXTT3=
EXTT4=
EXTT5=
EXTT6=
EXTT7=
EXTT8=
EXTT9=
EXTT10=
EXTT11=
PLAYORDER=
